<svg xmlns="http://www.w3.org/2000/svg" viewBox="0 0 46 46"><path fill="#fbb03b" d="M23,40a83.45,83.45,0,0,1-11.87-.85,5.08,5.08,0,0,1-4.28-4.28,83.35,83.35,0,0,1,0-23.73,5.08,5.08,0,0,1,4.28-4.28,83.35,83.35,0,0,1,23.73,0,5.08,5.08,0,0,1,4.28,4.28,83.34,83.34,0,0,1,0,23.73,5.08,5.08,0,0,1-4.28,4.28A83.45,83.45,0,0,1,23,40ZM23,8a81.38,81.38,0,0,0-11.58.83h0a3,3,0,0,0-2.59,2.59,81.29,81.29,0,0,0,0,23.16,3,3,0,0,0,2.59,2.59,81.28,81.28,0,0,0,23.16,0,3,3,0,0,0,2.59-2.59,81.28,81.28,0,0,0,0-23.16,3,3,0,0,0-2.59-2.59A81.38,81.38,0,0,0,23,8Z"/><path fill="#fbb03b" d="M18.8,24.64l10,7A2,2,0,0,0,32,30V16a2,2,0,0,0-3.14-1.64l-10,7A2,2,0,0,0,18.8,24.64Z"/><rect width="4.98" height="17.9" x="13.97" y="14.12" fill="#f15a24" rx="2.49" ry="2.49" transform="rotate(-180 16.455 23.065)"/></svg>