<svg xmlns="http://www.w3.org/2000/svg" viewBox="0 0 46 46"><path fill="#fbb03b" d="M29,21.36l-9.86-6.88A2,2,0,0,0,16,16.12V29.88a2,2,0,0,0,3.14,1.64L29,24.64A2,2,0,0,0,29,21.36Z"/><path fill="#f15a24" d="M24.25,18l-5.09-3.55A2,2,0,0,0,16,16.12v6.68Z"/><path fill="#fbb03b" d="M23,40a83.45,83.45,0,0,1-11.87-.85,5.08,5.08,0,0,1-4.28-4.28,83.34,83.34,0,0,1,0-23.73,5.08,5.08,0,0,1,4.28-4.28,83.34,83.34,0,0,1,23.73,0,5.08,5.08,0,0,1,4.28,4.28,83.34,83.34,0,0,1,0,23.73,5.08,5.08,0,0,1-4.28,4.28A83.45,83.45,0,0,1,23,40ZM23,8a81.39,81.39,0,0,0-11.58.83,3,3,0,0,0-2.59,2.59,81.36,81.36,0,0,0,0,23.16,3,3,0,0,0,2.59,2.59,81.29,81.29,0,0,0,23.16,0h0a3,3,0,0,0,2.59-2.59,81.28,81.28,0,0,0,0-23.16,3,3,0,0,0-2.59-2.59A81.38,81.38,0,0,0,23,8Z"/></svg>